<svg width="25" height="24" viewBox="0 0 25 24" fill="none" xmlns="http://www.w3.org/2000/svg">
<path d="M3.125 11.25C2.25 11.25 1.51042 10.9479 0.90625 10.3438C0.302083 9.73958 0 9 0 8.125C0 7.25 0.302083 6.51042 0.90625 5.90625C1.51042 5.30208 2.25 5 3.125 5C4 5 4.73958 5.30208 5.34375 5.90625C5.94792 6.51042 6.25 7.25 6.25 8.125C6.25 9 5.94792 9.73958 5.34375 10.3438C4.73958 10.9479 4 11.25 3.125 11.25ZM8.75 6.25C7.875 6.25 7.13542 5.94792 6.53125 5.34375C5.92708 4.73958 5.625 4 5.625 3.125C5.625 2.25 5.92708 1.51042 6.53125 0.90625C7.13542 0.302083 7.875 0 8.75 0C9.625 0 10.3646 0.302083 10.9688 0.90625C11.5729 1.51042 11.875 2.25 11.875 3.125C11.875 4 11.5729 4.73958 10.9688 5.34375C10.3646 5.94792 9.625 6.25 8.75 6.25ZM16.25 6.25C15.375 6.25 14.6354 5.94792 14.0312 5.34375C13.4271 4.73958 13.125 4 13.125 3.125C13.125 2.25 13.4271 1.51042 14.0312 0.90625C14.6354 0.302083 15.375 0 16.25 0C17.125 0 17.8646 0.302083 18.4688 0.90625C19.0729 1.51042 19.375 2.25 19.375 3.125C19.375 4 19.0729 4.73958 18.4688 5.34375C17.8646 5.94792 17.125 6.25 16.25 6.25ZM21.875 11.25C21 11.25 20.2604 10.9479 19.6562 10.3438C19.0521 9.73958 18.75 9 18.75 8.125C18.75 7.25 19.0521 6.51042 19.6562 5.90625C20.2604 5.30208 21 5 21.875 5C22.75 5 23.4896 5.30208 24.0938 5.90625C24.6979 6.51042 25 7.25 25 8.125C25 9 24.6979 9.73958 24.0938 10.3438C23.4896 10.9479 22.75 11.25 21.875 11.25ZM5.8125 23.75C4.875 23.75 4.08833 23.3904 3.4525 22.6712C2.81667 21.9521 2.49917 21.1038 2.5 20.1262C2.5 19.0429 2.87 18.095 3.61 17.2825C4.35 16.47 5.08417 15.6679 5.8125 14.8763C6.41667 14.2304 6.9375 13.5275 7.375 12.7675C7.8125 12.0075 8.33333 11.2938 8.9375 10.6263C9.39583 10.0846 9.92708 9.63667 10.5312 9.2825C11.1354 8.92833 11.7917 8.75083 12.5 8.75C13.2083 8.75 13.8646 8.91667 14.4688 9.25C15.0729 9.58333 15.6042 10.0208 16.0625 10.5625C16.6458 11.2292 17.1617 11.9479 17.61 12.7188C18.0583 13.4896 18.5842 14.2083 19.1875 14.875C19.9167 15.6667 20.6508 16.4688 21.39 17.2812C22.1292 18.0938 22.4992 19.0417 22.5 20.125C22.5 21.1042 22.1821 21.9533 21.5462 22.6725C20.9104 23.3917 20.1242 23.7508 19.1875 23.75C18.0625 23.75 16.9479 23.6562 15.8438 23.4688C14.7396 23.2812 13.625 23.1875 12.5 23.1875C11.375 23.1875 10.2604 23.2812 9.15625 23.4688C8.05208 23.6562 6.9375 23.75 5.8125 23.75Z" fill="#FFC700"/>
</svg>
